<svg width="30" height="30" viewBox="0 0 30 30" fill="none" xmlns="http://www.w3.org/2000/svg">
<path d="M30 22.375V6.625C30 5.1725 28.8183 4 27.3545 4H2.6455C1.18166 4 0 5.1725 0 6.625V22.375C0 23.8275 1.18166 25 2.6455 25H27.3545C28.8183 25 30 23.8275 30 22.375ZM27.6896 6.4325C28.2716 7.01 27.9541 7.605 27.6367 7.9025L20.4762 14.4125L27.3545 21.5175C27.5661 21.7625 27.7072 22.1475 27.4603 22.41C27.231 22.69 26.7019 22.6725 26.4727 22.4975L18.7654 15.97L14.9912 19.3825L11.2346 15.97L3.52734 22.4975C3.29806 22.6725 2.76896 22.69 2.53968 22.41C2.29277 22.1475 2.43386 21.7625 2.6455 21.5175L9.52381 14.4125L2.36332 7.9025C2.04586 7.605 1.72839 7.01 2.31041 6.4325C2.89242 5.855 3.49206 6.135 3.98589 6.555L14.9912 15.375L26.0141 6.555C26.5079 6.135 27.1076 5.855 27.6896 6.4325V6.4325Z" fill="#00423E"/>
</svg>
