<svg width="27" height="27" viewBox="0 0 27 27" fill="none" xmlns="http://www.w3.org/2000/svg">
<g clip-path="url(#clip0_215_13309)">
<path d="M13.5022 0C9.83496 0 9.37354 0.0153809 7.93433 0.0812988C6.81461 0.104057 5.70686 0.316542 4.6582 0.709717C3.75689 1.04669 2.94073 1.5778 2.26758 2.26538C1.58061 2.93991 1.04832 3.75558 0.707519 4.65601C0.314192 5.70531 0.102424 6.81393 0.0812988 7.93433C0.0175781 9.37354 0 9.83276 0 13.5C0 17.1672 0.0153809 17.6243 0.0812988 19.0657C0.104057 20.1854 0.316542 21.2931 0.709717 22.3418C1.04835 23.2423 1.57923 24.0581 2.26538 24.7324C2.93933 25.4201 3.75517 25.9525 4.65601 26.2925C5.7056 26.6848 6.81404 26.8965 7.93433 26.9187C9.37354 26.9846 9.83276 27 13.5 27C17.1672 27 17.6243 26.9846 19.0657 26.9187C20.186 26.8965 21.2944 26.6848 22.344 26.2925C23.2419 25.9442 24.0573 25.4127 24.7383 24.7317C25.4192 24.0507 25.9508 23.2353 26.2991 22.3374C26.6901 21.2881 26.9026 20.1808 26.9275 19.0613C26.9912 17.6221 27.0088 17.1628 27.0088 13.4956C27.0088 9.82837 26.9912 9.36914 26.9275 7.92993C26.9026 6.80973 26.6901 5.70163 26.2991 4.65161C25.9599 3.75087 25.4283 2.93501 24.7412 2.26099C24.0685 1.5729 23.2522 1.04172 22.3506 0.705322C21.2981 0.312674 20.1866 0.101664 19.0635 0.0812988C17.6221 0.0153809 17.165 0 13.4978 0H13.5022ZM12.2893 2.43237H13.5022C17.1057 2.43237 17.532 2.44556 18.9558 2.51147C19.8119 2.52122 20.6599 2.67804 21.4629 2.9751C22.0491 3.19166 22.5792 3.53706 23.0142 3.98584C23.462 4.42152 23.8073 4.95142 24.0249 5.53711C24.322 6.34006 24.4788 7.1881 24.4885 8.04419C24.5544 9.46582 24.5676 9.89429 24.5676 13.4978C24.5676 17.1013 24.5544 17.5276 24.4885 18.9514C24.479 19.8068 24.3222 20.6542 24.0249 21.4563C23.8 22.0381 23.4559 22.5664 23.0147 23.0072C22.5734 23.4481 22.0449 23.7917 21.4629 24.0161C20.6605 24.3155 19.8122 24.4731 18.9558 24.4819C17.5342 24.5479 17.1057 24.561 13.5022 24.561C9.89868 24.561 9.47021 24.5479 8.04639 24.4819C7.19017 24.4715 6.34213 24.3139 5.53931 24.0161C4.9525 23.8005 4.42162 23.4558 3.98584 23.0076C3.53786 22.5724 3.19321 22.0423 2.97729 21.4563C2.67949 20.6535 2.52192 19.8054 2.51147 18.9492C2.44775 17.5254 2.43457 17.0991 2.43457 13.4934C2.43457 9.8877 2.44775 9.46362 2.51147 8.03979C2.5206 7.18345 2.67821 6.33518 2.97729 5.53271C3.19321 4.9467 3.53786 4.41659 3.98584 3.98145C4.42196 3.53309 4.9527 3.18777 5.53931 2.9707C6.34238 2.67382 7.19027 2.51628 8.04639 2.50488C9.29224 2.44995 9.77344 2.43237 12.2893 2.43018V2.43237ZM20.707 4.67358C20.3862 4.67358 20.0726 4.76874 19.8059 4.94702C19.5392 5.1253 19.3313 5.37869 19.2087 5.67512C19.086 5.97156 19.054 6.29771 19.1168 6.61233C19.1795 6.92695 19.3342 7.21588 19.5612 7.44257C19.7882 7.66927 20.0773 7.82354 20.392 7.88586C20.7067 7.94818 21.0328 7.91575 21.3291 7.79268C21.6254 7.66961 21.8785 7.46143 22.0564 7.19447C22.2343 6.92751 22.329 6.61378 22.3286 6.29297C22.3286 6.08012 22.2867 5.86937 22.2051 5.67275C22.1236 5.47613 22.0041 5.29752 21.8535 5.14711C21.7029 4.99671 21.5241 4.87747 21.3274 4.79622C21.1307 4.71497 20.9199 4.6733 20.707 4.67358ZM13.5022 6.56763C12.1311 6.56763 10.7908 6.9742 9.65078 7.73594C8.51075 8.49768 7.62221 9.58037 7.09752 10.8471C6.57282 12.1138 6.43554 13.5077 6.70303 14.8524C6.97051 16.1972 7.63076 17.4324 8.60027 18.4019C9.56978 19.3714 10.805 20.0317 12.1498 20.2992C13.4945 20.5667 14.8884 20.4294 16.1551 19.9047C17.4218 19.38 18.5045 18.4914 19.2663 17.3514C20.028 16.2114 20.4346 14.8711 20.4346 13.5C20.434 11.6616 19.7034 9.89866 18.4035 8.59872C17.1035 7.29877 15.3406 6.56821 13.5022 6.56763ZM13.5022 9C14.3925 8.9987 15.2632 9.26151 16.0041 9.75518C16.7449 10.2489 17.3227 10.9512 17.6644 11.7734C18.006 12.5955 18.096 13.5005 17.9231 14.3739C17.7502 15.2472 17.3222 16.0496 16.6931 16.6796C16.064 17.3096 15.2622 17.7389 14.3891 17.913C13.516 18.0872 12.6109 17.9985 11.7882 17.6581C10.9656 17.3177 10.2624 16.7409 9.76764 16.0007C9.27288 15.2606 9.00879 14.3903 9.00879 13.5C9.01111 12.3092 9.48534 11.1679 10.3276 10.326C11.1698 9.4842 12.3114 9.01053 13.5022 9.00879V9Z" fill="#00423E"/>
</g>
<defs>
<clipPath id="clip0_215_13309">
<rect width="27" height="27" fill="white"/>
</clipPath>
</defs>
</svg>
