<svg width="27" height="27" viewBox="0 0 27 27" fill="none" xmlns="http://www.w3.org/2000/svg">
<path d="M5.29369 0.00675201C2.38533 0.00675201 0.00500488 2.38702 0.00500488 5.29543V21.7071C0.00500488 24.6155 2.38527 26.995 5.29369 26.995H21.7054C24.6138 26.995 26.9932 24.6155 26.9932 21.7071V5.29543C26.9932 2.38707 24.6138 0.00675201 21.7054 0.00675201H5.29369ZM6.62387 4.46035C8.01837 4.46035 8.87732 5.37581 8.90384 6.57917C8.90384 7.75597 8.01832 8.69716 6.5969 8.69716H6.57074C5.20278 8.69716 4.31861 7.75602 4.31861 6.57917C4.31861 5.37584 5.22954 4.46035 6.62385 4.46035H6.62387ZM18.641 10.0847C21.3229 10.0847 23.3334 11.8376 23.3334 15.6045V22.6366H19.2576V16.076C19.2576 14.4273 18.6678 13.3026 17.1928 13.3026C16.0668 13.3026 15.3956 14.0607 15.1009 14.793C14.9933 15.055 14.9668 15.421 14.9668 15.7875V22.6366H10.8911C10.8911 22.6366 10.9446 11.5231 10.8911 10.3723H14.9677V12.1091C15.5093 11.2734 16.4781 10.0847 18.641 10.0847V10.0847ZM4.55902 10.3732H8.63476V22.6367H4.55902V10.3732Z" fill="#00423E"/>
</svg>
