<svg width="27" height="27" viewBox="0 0 27 27" fill="none" xmlns="http://www.w3.org/2000/svg">
<g clip-path="url(#clip0_215_13307)">
<path fill-rule="evenodd" clip-rule="evenodd" d="M26.9996 5.1269C26.0071 5.57078 24.9377 5.86578 23.8211 5.99725C24.9651 5.31215 25.84 4.2265 26.2576 2.93391C25.1884 3.56627 24 4.03008 22.7409 4.27818C21.7285 3.20242 20.2905 2.53368 18.6975 2.53368C15.6387 2.53368 13.1622 5.01156 13.1622 8.06842C13.1622 8.49983 13.2101 8.92192 13.3038 9.32894C8.70139 9.09566 4.6211 6.89238 1.88969 3.54011C1.39972 4.38535 1.14044 5.34641 1.14044 6.32384V6.32449C1.14044 8.24387 2.11495 9.94146 3.60195 10.9314C2.69459 10.9045 1.84109 10.6514 1.09168 10.2414V10.3106C1.09168 12.9948 2.99956 15.2345 5.5347 15.7407C5.07024 15.8669 4.57995 15.9365 4.07483 15.9365C3.71705 15.9365 3.37232 15.8997 3.02953 15.8374C3.73763 18.0356 5.7815 19.6381 8.20195 19.6849C6.30412 21.1717 3.92045 22.0571 1.32188 22.0571C0.873384 22.0571 0.43647 22.0296 0.00012207 21.9773C2.45653 23.5534 5.36646 24.4662 8.49249 24.4662C18.677 24.4662 24.2511 16.0262 24.2511 8.70824C24.2511 8.46508 24.2457 8.22945 24.2357 7.99123C25.3173 7.21743 26.2552 6.2409 26.9975 5.12925L27 5.12674L26.9996 5.12706L26.9996 5.1269Z" fill="#00423E"/>
</g>
<defs>
<clipPath id="clip0_215_13307">
<rect width="27" height="27" fill="white"/>
</clipPath>
</defs>
</svg>
